{"title":"Grown Ups Srpski prevod","uid":7094446,"size":720712219,"categoryP":"video","categoryS":"movies_dvdr","magnet":"?xt=urn:btih:dda30184c27a2bc3cc2b2250433cf7f059e12c5b&amp;dn=Grown+Ups+Srpski+prevod&amp;tr=udp%3A%2F%2Ftracker.openbittorrent.com%3A80&amp;tr=udp%3A%2F%2Fopen.demonii.com%3A1337&amp;tr=udp%3A%2F%2Ftracker.coppersurfer.tk%3A6969&amp;tr=udp%3A%2F%2Fexodus.desync.com%3A6969","seeders":0,"leechers":0,"uploader":"homerruma","files":4,"time":1331490671,"description":"General\nComplete name                    : Grown.Ups.2010.DVDRip.XviD-ETRG.avi\nFormat                           : AVI\nFormat/Info                      : Audio Video Interleave\nFile size                        : 703 MiB\nDuration                         : 1h 38mn\nOverall bit rate                 : 1 001 Kbps\nWriting library                  : VirtualDub build 32618/release\n\nVideo\nID                               : 0\nFormat                           : MPEG-4 Visual\nFormat profile                   : Advanced Simple@L5\nFormat settings, BVOP            : Yes\nFormat settings, QPel            : No\nFormat settings, GMC             : No warppoints\nFormat settings, Matrix          : Default (H.263)\nMuxing mode                      : Packed bitstream\nCodec ID                         : XVID\nCodec ID/Hint                    : XviD\nDuration                         : 1h 38mn\nBit rate                         : 873 Kbps\nWidth                            : 608 pixels\nHeight                           : 320 pixels\nDisplay aspect ratio             : 1.900\nFrame rate                       : 25.000 fps\nColor space                      : YUV\nChroma subsampling               : 4:2:0\nBit depth                        : 8 bits\nScan type                        : Progressive\nCompression mode                 : Lossy\nBits/(Pixel*Frame)               : 0.180\nStream size                      : 613 MiB (87%)\nWriting library                  : XviD 1.2.1 (UTC 2008-12-04)\n\nAudio\nID                               : 1\nFormat                           : MPEG Audio\nFormat version                   : Version 1\nFormat profile                   : Layer 3\nCodec ID                         : 55\nCodec ID/Hint                    : MP3\nDuration                         : 1h 38mn\nBit rate mode                    : Variable\nBit rate                         : 112 Kbps\nChannel(s)                       : 2 channels\nSampling rate                    : 48.0 KHz\nCompression mode                 : Lossy\nStream size                      : 80.8 MiB (12%)\nAlignment                        : Aligned on interleaves\nInterleave, duration             : 24 ms (0.60 video frame)\nInterleave, preload duration     : 496 ms\nWriting library                  : LAME3.98r\nEncoding settings                : -m s -V 4 -q 3 -lowpass 15.6 --abr 112\n\n","torrent":{"xt":"urn:btih:dda30184c27a2bc3cc2b2250433cf7f059e12c5b","amp;dn":"Grown+Ups+Srpski+prevod","amp;tr":["udp%3A%2F%2Ftracker.openbittorrent.com%3A80","udp%3A%2F%2Fopen.demonii.com%3A1337","udp%3A%2F%2Ftracker.coppersurfer.tk%3A6969","udp%3A%2F%2Fexodus.desync.com%3A6969"],"infoHash":"dda30184c27a2bc3cc2b2250433cf7f059e12c5b","infoHashBuffer":{"type":"Buffer","data":[221,163,1,132,194,122,43,195,204,43,34,80,67,60,247,240,89,225,44,91]},"announce":[],"urlList":[]}}